<?xml version="1.0" encoding="iso-8859-1"?>
<!-- Generator: Adobe Illustrator 19.1.0, SVG Export Plug-In . SVG Version: 6.00 Build 0)  -->
<svg xmlns="http://www.w3.org/2000/svg" xmlns:xlink="http://www.w3.org/1999/xlink" version="1.1" id="Capa_1" x="0px" y="0px" viewBox="0 0 480.361 480.361" style="enable-background:new 0 0 480.361 480.361;" xml:space="preserve" width="512px" height="512px">
<g>
	<path d="M445.781,248.983c-2.515-2.515-5.03-7.545-10.06-7.545c-5.03,0-10.06,0-12.575,2.515L252.127,412.457V274.133   c75.449-2.515,95.569-17.605,120.719-47.785c32.695-40.24,25.15-93.054,22.635-93.054c-15.09-98.084-40.24-123.234-45.27-125.749   c-5.03-5.03-12.575-5.03-15.09,0L287.337,60.36L249.612,7.545c-2.515-2.515-5.03-5.03-10.06-5.03c-2.515,0-7.545,2.515-10.06,5.03   l-40.24,50.3l-50.3-52.815c-2.515-2.515-5.03-5.03-7.545-5.03c-5.03,0-7.545,2.515-10.06,5.03   c-45.27,45.27-45.27,125.749-45.27,128.264c0,2.515-5.03,52.815,30.18,93.054c27.665,27.665,70.419,45.27,120.719,47.785v138.324   L50.929,246.468c-2.515-2.515-5.03-5.03-10.06-2.515c-5.03,0-7.545,2.515-7.545,7.545c0,2.515-62.874,148.384,90.539,228.863   c0,0,5.03,0,7.545,0h113.174h103.114c2.515,0,7.545-2.515,10.06-2.515C508.655,397.367,448.296,251.498,445.781,248.983z" fill="#D80027"/>
</g>
<g>
</g>
<g>
</g>
<g>
</g>
<g>
</g>
<g>
</g>
<g>
</g>
<g>
</g>
<g>
</g>
<g>
</g>
<g>
</g>
<g>
</g>
<g>
</g>
<g>
</g>
<g>
</g>
<g>
</g>
</svg>
